<svg xmlns="http://www.w3.org/2000/svg" width="146.799" height="154.655" viewBox="0 0 146.799 154.655">
  <path id="Path_36" data-name="Path 36" d="M0,0C2.974-1.589,11.232-8.4,11.232-9.261A7.22,7.22,0,0,0,9.58-11.823C6.876-14.9,4.291-14.148.6-9.2c-2.218,2.97-4.264,4.289-7.383,4.759-4.666.7-6.752,2.747-4.2,4.118C-7.655,1.465-3,1.6,0,0M-26.856,5.468a1.882,1.882,0,0,0,1.365-1.544c0-1.352-7.882-8.733-8.906-8.34a12.7,12.7,0,0,1-3.066.291c-2.624,0-2.622-.051-.257,5.185,1.059,2.344,1.6,2.915,3.419,3.574a21.937,21.937,0,0,0,5.449,1.281A5.937,5.937,0,0,0-26.856,5.468Zm11.244,71.888a12.019,12.019,0,0,1,.8-4.043c.6-1.96.956-3.708.78-3.884a5.159,5.159,0,0,0-2.565.332c-8,2.326-11.071,2.921-11.708,2.273-.858-.873.342-1.837,7.552-6.07,6.505-3.82,10.352-7.318,10.865-9.879.261-1.305-.182-3.351-1.724-7.965a79.567,79.567,0,0,1-3.21-14.143c-1.719-12.007-3.2-14.585-9.778-17.062A53.756,53.756,0,0,1-43.254,5.476l-3.647-3.3L-48.6,3.813c-2.039,1.977-2.951,2.044-4.929.365-1.554-1.32-2.587-3.049-4.382-7.333-.97-2.314-1.21-2.515-3.386-2.842-3.677-.551-4.135-1.075-2.262-2.585l1.587-1.28-4.381-4.224c-5.972-5.759-5.858-6.55,1.278-8.882,4.3-1.406,4.719-2.153,4.721-8.488,0-4.481.188-5.716,1.093-7.259,1.4-2.384,3.338-3.1,5.883-2.183,2.422.876,2.941.388,3.275-3.082.237-2.471.131-2.776-1.468-4.237-3.663-3.346-4.526-6.042-2.925-9.139,1.443-2.789,3.474-3.254,7.682-1.76a7.346,7.346,0,0,0,3.349.568c.464-.178,1.226-1.641,1.693-3.251,1.2-4.126,2.919-5.977,6.2-6.681,3.379-.725,6.65-.734,7.979-.023,1.148.614,1.409,3.115.427,4.1a1.465,1.465,0,0,0-.283,1.437c.4,1.028,6.175,1.186,7.166.2a5.966,5.966,0,0,0,.639-3.109c0-5.567,2.675-10.277,6.215-10.941,1.463-.274,2.4.045,5.362,1.829,1.975,1.188,3.975,2.305,4.445,2.482.487.183,2.612-.6,4.948-1.836,5.381-2.834,6.638-2.808,9.141.186a8.145,8.145,0,0,0,3.4,2.631A11.382,11.382,0,0,1,17.5-69.484c1.2.968,2.8,2.191,3.546,2.717,1.659,1.167,1.715,2.523.214,5.193-1.389,2.472-5.564,4.856-10.5,6-3.643.841-4.3,1.4-4.315,3.689-.011,1.929.686,1.848,4.06-.476a10.827,10.827,0,0,1,5.522-2.2c2.7-.259,2.7-.256,2.357,1.133-.29,1.153-.124,1.479.966,1.893A6.609,6.609,0,0,1,21.7-49.726a10.044,10.044,0,0,0,3.784,2.289c2.408.855,2.97.888,4.493.259A24.505,24.505,0,0,1,34.915-48.3a54.479,54.479,0,0,0,5.637-1.041c2.505-.652,4.385-.2,6.99,1.688.753.546,1.21.493,2.538-.291a5.41,5.41,0,0,1,6.262.089,35.457,35.457,0,0,0,6.048,2.769c6.476,2.378,10.578,5.506,10.578,8.067a4.971,4.971,0,0,1-1.67,2.548c-1.994,1.821-1.765,2.956.7,3.478,1.948.413,4.16,2.167,4.16,3.3,0,1.248-2.228,5.171-3.4,5.991A22,22,0,0,0,70.4-19.7a18.9,18.9,0,0,1-2.417,2,6.292,6.292,0,0,0-1.882,2.706c-.683,1.887-.655,1.973,1.286,3.961,1.78,1.823,1.948,2.229,1.625,3.948a9.808,9.808,0,0,1-2.025,3.813C65.483-1.55,65.122-1.4,63.16-1.63a30.878,30.878,0,0,1-4.451-.96q-2.286-.7-3.1-.187c-1.367.863-.988,1.564,1.023,1.89A7.1,7.1,0,0,1,59.387.125a11.706,11.706,0,0,0,3.587,1.319c3.828.862,3.878,1.788.1,1.988-3.206.169-3.617.488-4.2,3.259-.479,2.266-4.22,3.783-8.128,3.294l-2.933-.366.338,1.345c.629,2.506-.626,1.959-3.345-1.459C42.053,6.044,36.671.785,34.277-.783,33-1.621,32.916-1.6,31.636.041A4.232,4.232,0,0,1,29.275,1.73C28.7,1.73,26.7.3,24.823-1.445L21.411-4.619l-2.828.837C13.661-2.324,11.828-.9,8.1,4.338a7.215,7.215,0,0,0-1.663,5.2A14.494,14.494,0,0,1,4.8,15.978a24.494,24.494,0,0,0-1.915,6.508c-.516,5.545,2.551,14.807,7.278,21.975,2.925,4.437,3.754,6.9,3.348,9.928-.6,4.467,1.736,6.85,12.6,12.861,5.737,3.174,6.455,3.778,5.322,4.478-.8.5-7.569-.7-12.38-2.187-7.346-2.274-8.555-1.759-8.014,3.414.4,3.813-.034,4.226-3.454,3.305a7.731,7.731,0,0,1-4.064-2.9c-3.776-4.607-5.972-4.434-13.43,1.063C-14.7,77.951-15.114,78.163-15.612,77.356Z" transform="translate(70.638 76.91)" fill="#5d8f25"/>
</svg>
