<svg xmlns="http://www.w3.org/2000/svg" width="201.314" height="112.885" viewBox="0 0 201.314 112.885">
  <g id="Group_5" data-name="Group 5" transform="translate(-654.686 -578.526)">
    <path id="Path_17" data-name="Path 17" d="M0,0C35.783-18.45-32.128-25.021-64.3-34.195c-12.73-3.63-18.683-10.164-12.86-15.355,5.777-5.148,17.093-10.574,26.837-15.306,19.567-9.5-20.85-9.46-38.182-9.46-12.571,0-7.143-10.116-3-15.347C-128.221-85.214-147.64-76.6-147.64-76.6V20.622h30.787C-97.844,4.967-35.783,18.451,0,0" transform="translate(802.326 670.79)" fill="#8dc727"/>
    <path id="Path_18" data-name="Path 18" d="M0,0C-.637,7.6,22.08-.59,48.917,2.764S69.6,17.3,58.981,26.247,91.725,32.688,134.217,36.6a42.146,42.146,0,0,1,10.866,2.371V6.119S109.86-9.547,44.444-9.547A374.2,374.2,0,0,0,4.191-7.438C2.391-4.931.195-2.3,0,0" transform="translate(710.917 588.073)" fill="#8dc727"/>
  </g>
</svg>
