<svg xmlns="http://www.w3.org/2000/svg" width="139.049" height="139.049" viewBox="0 0 139.049 139.049">
  <path id="Path_35" data-name="Path 35" d="M0,0,4.171-3.911,3.042,1.3a.828.828,0,0,1-.7.347ZM-2,1.825h.522a3.049,3.049,0,0,1,2,1.217L1.651,4.78q0,1.651-3.65,6.952L-2.433,2.26-2,1.825m-12.34.869-6.692-7.648,1.912-.521,4,.434.783,7.735M14.687-11.732,25.029-17.12a36.886,36.886,0,0,1-6.692,7.473L6.779.174,8.691-6.952q.869-1.738,6-4.78m1.825-13.123.956.261.695.174-7.213,6L13.47-21.9l3.042-2.955m7.039,1.043,3.911.434v1.391l-1.217,2.781q-3.3.261-8,3.3l-9.3,5.649v-2.086l.609-2.433,6.344-6,4.866-3.477a22.106,22.106,0,0,1,2.781.435M-25.724-6.866l-3.911.7q-2.694,0-9.559-2.347l9.3-1.13,2.259.435a3,3,0,0,1,1.912,2.346M-30.069-20.51v-.782q8.343,3.477,14.078,12.775v1.565h-6.518q-7.56-11.994-7.56-13.558M-42.5-47.016v-.174l13.3,12.515,5.475,3.737a36.14,36.14,0,0,1,8.169,10.254q3.649,6.519,3.65,11.3l-.261,1.217a9.95,9.95,0,0,0-.087,1.217l-5.3-6.779q-6.6-7.475-8.951-9.125l-5.649-8.43q-2.346-3.3-3.476-3.65.434,1.739,3.65,6.083l4.432,6.258-3.129-1.043q-3.3-2.955-6.778-10.429l-4.867-10.95-.174-2m9.3-33.719v-2.173l4.085,6.953,9.125,12.079-4.954-2.78-4.345-7.127V-73l.608,2.173q.7,1.3,1.13,2.346-.869-.607-3.216-5.735Q-33.2-79.346-33.2-80.735M31.894-40.672v1.13q0,2.781-3.824,14.6l-1.911.435q-1.3-.348-4.172-.956l-.521-.7,3.128-4.779,3.476-7.735,3.824-2m8.778-5.562a19.485,19.485,0,0,1,6.083-3.041q2.173-.7,3.476-1.13-.521,4.52-5.214,10.342-4.693,5.908-7.821,6.778a4.691,4.691,0,0,1,.782-1.651l.695-2.173V-37.2a46.705,46.705,0,0,0-3.3,3.824A10.23,10.23,0,0,1,31.547-30.5q1.3-8.951,2.52-11.819a38.21,38.21,0,0,1,6.6-3.911m-16.6,8.082h1.564l-1.043,3.477q-2.085,5.562-4.258,7.734a3.849,3.849,0,0,1-1.217.174l-3.737.174a60.325,60.325,0,0,0-5.475,7.561Q7.474-15.3,7.474-12.688A8.6,8.6,0,0,1,5.91-8.082L-2-2A21.985,21.985,0,0,1,1.477-13.644a163.4,163.4,0,0,1,12.6-15.035q8.689-9.472,9.994-9.473m5.214-10.6-2.433,3.216a19.68,19.68,0,0,1-6.518,8.777l-8.778,7.3q.609-6.6,1.13-7.3l4.259-2.694,8.516-12.688,7.3-4.606-3.476,7.995m4.78-7.126a24.293,24.293,0,0,1,9.386-8.6,13.3,13.3,0,0,1-2.955,4Q38.585-59.1,34.849-51.8q-3.736,7.127-7.995,9.212l7.213-13.3M10.516-35.805v.695q0,4.259-3.477,9.647L0-15.9l2.086-9.733a11.456,11.456,0,0,1,6-8.169l2.434-2M-17.12-39.89q-1.391-.781-6.344-1.3-4.172-.174-5.3-2.086-2.085-3.388-2.085-9.56v-3.389l7.213,8.082A60.134,60.134,0,0,1-17.12-39.89m-2.955,1.13a10.13,10.13,0,0,1,6.17,4.954q2.086,3.563,2.173,9.646l.347,2.173a11.491,11.491,0,0,1,.348,1.738v1.825l-15.556-21.9,6.518,1.564m9.82.174-.869,5.3-12.34-23.03Q-27.9-64.484-27.9-67q8.6,4.519,9.821,6.6l4.866,9.3q3.564,7.734,3.564,8.777-.174,1.478-.609,3.737m-5.3-24.334a12.82,12.82,0,0,1-.782-4.953,20.492,20.492,0,0,1,2.346-8.43,20.707,20.707,0,0,0,2.434,6.866L-7.735-60.4q2.174,6,2.173,17.033L-6.518-29.2v-6.866q-.607-3.823-.869-6.692l-.695-2.607-.435-6.257q-.521-4.084-4.432-14.948L-10.6-50.231-15.556-62.92M-6-76.824a11.4,11.4,0,0,1,1.477-4.954l.434,9.386A67.89,67.89,0,0,1-5.562-59.009a21.823,21.823,0,0,1-2-7.647l1.391-5.3L-6-76.824m4.084-6.866.435,1.217L-2.868-74.3q-.956-7.648-1.043-7.822.261-.694,2-1.564m-13.3-3.389q0-.783.086-1.825l.087-2.521L-12.6-88.47q2.694,6.518,2.694,9.647v8.864q-3.3-6.169-3.3-10.6v-2.347a1,1,0,0,0-.695.348A11.428,11.428,0,0,0-13.992-81a12.882,12.882,0,0,1-1.216-6.083M49.71-22.509l-1.738,1.652-2.955.608-6,3.65L28.5-18.424v-1.912a3.53,3.53,0,0,1,.869-2.086,2.7,2.7,0,0,1,1.825-.956q1.216.087,3.476.261l15.035.608M54.142-60.66a31.127,31.127,0,0,1-2.433,7.3q-1.478,2.433-2.868,2.433h-.782a.5.5,0,0,0-.348-.173l.695-1.217a7.406,7.406,0,0,1-2.868,2.607q-2.52,1.129-3.823,1.825l-.261-.261a3.568,3.568,0,0,1,1.3-2.259l1.565-2.347-.522-.26.609-.869a1.393,1.393,0,0,1,.347.869v.087l1.3-2a4.347,4.347,0,0,1,1.477-1.043,7.063,7.063,0,0,0-3.128,1.13l1.216-5.215-3.3,9.3a10.68,10.68,0,0,1-7.561,6.6L26.072-39.8q9.906-8.343,15.034-13.644l-4.693,3.824-.087-1.217a16.765,16.765,0,0,1,3.737-7.56,44.352,44.352,0,0,1,8.343-7.909L44.583-63.7a4.092,4.092,0,0,1,1.825-2.172l2.433-1.652a.968.968,0,0,0-.435.087,2.592,2.592,0,0,1-.434.087l2.086-3.476-2.868,3.3a3.805,3.805,0,0,1-2.781,1.652h-.522l-.087-.261,1.217-2.694a23.934,23.934,0,0,1-2.868,3.737,17.454,17.454,0,0,1-5.127,3.911A10.5,10.5,0,0,1,38.5-65l.174-.435a32.578,32.578,0,0,1-4.345,5.91,14.567,14.567,0,0,1-6.866,4.606,59.924,59.924,0,0,1,8.864-12.254L40.585-71l2.781-3.128V-74.3a16.721,16.721,0,0,1-4.693,4.345v-.521l1.912-3.129-2.955,3.65-.261-2.694-1.216,4.258L31.2-61.964c-.116-.115-.174-.2-.174-.26l.087-.174v-.522A11.147,11.147,0,0,1,32.329-67l1.217-3.824a1.2,1.2,0,0,0-.087-.521L29.548-59.878a50.309,50.309,0,0,1-5.736,7.735L18.6-44.235q-3.042,4.433-5.215,4.78a1.543,1.543,0,0,1-.173-.435v-.347l6.865-14.34,5.388-8.343,3.65-8,4.346-4,3.823-6.517-3.3,4.779q-1.651,2.521-2.868,2.521V-75l2.086-4.52a4.593,4.593,0,0,1,.695-.869,3.645,3.645,0,0,0,.608-.956l-.434-1.3.261-2.086q-3.3,9.211-5.3,11.819L31.2-86.732,28.766-78.91l-.522-5.649v-1.3L27.9-78.736l.26,2.607a21.7,21.7,0,0,1-1.216,6.6L15.035-46.147a.5.5,0,0,1-.174-.347v-.174q3.3-8.43,3.389-11.211l-3.215,9.907a57.783,57.783,0,0,1-3.824,9.3L8.082-35.892l-3.3,1.825-.348-.348.174-.26,9.038-16.686,2.868-6.953L26.941-73.783l-7.822,9.907a.708.708,0,0,1-.261-.434l1.13-6.866q.348-1.911.7-3.128l2.694-4q-.522.522-1.217,1.217a2.616,2.616,0,0,1-.087-.435q.435-1.3,1.217-3.737a18.2,18.2,0,0,0,1.3-5.475v-.782l-1.477,6.17-2.347,4.78V-77l1.912-10.255A60.249,60.249,0,0,0,19.206-74.3L17.468-63.441a99.452,99.452,0,0,1-5.475,13.21A74.148,74.148,0,0,1,5.388-39.194V-39.8l2.26-6.344a56.739,56.739,0,0,0-4.954,9.125L2.52-40.759,4-45.886l3.91-3.737a20.534,20.534,0,0,0,3.3-4.519l1.477-3.737L8.082-51.622a6.869,6.869,0,0,1-.087-1.13,33.624,33.624,0,0,1-4.258,4.346,11.265,11.265,0,0,1,.174-1.825,28.521,28.521,0,0,1,1.13-6.344,3.3,3.3,0,0,1,2.954-2.26,4.708,4.708,0,0,1,.261-.608,14.573,14.573,0,0,1,2.086-5.475l8.43-19.12a4.045,4.045,0,0,0-.783.609L18.25-88.9l-.782,5.04A9.713,9.713,0,0,1,15.9-79.258L15.3-84.211l.261-6.345-.869,5.041a.794.794,0,0,0-.434-.435A.989.989,0,0,0,13.9-86.3l1.217,7.387q0,3.042-2.434,7.734L8.951-65l-.26-1.738v-.435L7.648-62.92a4,4,0,0,1-2.26,2.868l-.261-1.477,3.564-8a28.264,28.264,0,0,0,2.694-8.083q-3.738,9.126-6,11.733l-.261-.869a9.72,9.72,0,0,1,1.478-4L8.082-74.13q3.129-15.644,3.129-18.337a1.819,1.819,0,0,0-.261-.956,3.926,3.926,0,0,1-.087-.609v.609A8.456,8.456,0,0,1,9.907-88.9l-.347-.7q-.174.7-.261,1.217v.174a42.392,42.392,0,0,1-1.043,9.386,46.564,46.564,0,0,1-3.215,8.864l-.435-5.388v-1.217A60.169,60.169,0,0,1,5.649-86.819q.348-.607.608-1.129v-.087a2.042,2.042,0,0,1-.347.521l.173-6-.608,4.258a9.4,9.4,0,0,1-1.043,3.737L3.563-96.378l-.521,1.651.521,29.809a85.74,85.74,0,0,1-.869,13.209l-.521,3.39a.354.354,0,0,1-.087-.261L.174-39.021Q-.7-26.333-4.258-19.467l-.174-37.978L-.608-69.437A7.664,7.664,0,0,1-3.042-66.4v-1.651q.174-.782.435-1.912l.7-1.738.956-9.56A32.347,32.347,0,0,1,1.3-90.034L.087-88.9V-97.16l-.695,1.825v7.908A3.454,3.454,0,0,1-2.26-84.646l-3.215,2.26-.087-2.086,2.781-8.951-.087-1.043-2,6.605-.26-9.647L-6-89.773a1.713,1.713,0,0,1-.435-.609L-7.3-97.421v1.477a9.928,9.928,0,0,0-.261,2v.609l1.13,4.084q.348,1.3.521,2.173l-.608,8q-.781,7.562-1.738,8.6l-.174-7.04a146.65,146.65,0,0,0-2.694-22.943v.261l.522,4.345-.435,1.217L-12.6-98.812l-.087.7,2.086,6.083a21.776,21.776,0,0,1,.7,5.91v.608a1.526,1.526,0,0,1,.174.435l-.348.782h-.087l-4.519-16.165v1.825l1.651,7.735v.521l-.087.348a10.94,10.94,0,0,1-2.52-5.127l-1.912-4.78,1.912,8.082-.435,4.606h-.26l-2.52-9.734.173,1.478-.434,1.043-2.52-4.606a1.512,1.512,0,0,0,.086.608v.522a.7.7,0,0,1-.086.434q-.522,0-.522.695l.956-.347.435.869q0,.521-.783.521h-.26a6.038,6.038,0,0,1,3.737,4.345l.869,4.693,2.781,8.343a10.26,10.26,0,0,1-1.912,5.128l-.869-8.778V-81l-.348,2.694-1.3-5.388,1.39,11.037v.174a2.19,2.19,0,0,1,.261.521v.435l-.782,1.043A41.536,41.536,0,0,1-20.162-81.6L-21.2-92.815q0,.956-.608,1.217a3.077,3.077,0,0,0,.26,1.216l.348,1.3a2.852,2.852,0,0,1-.087.695,13.747,13.747,0,0,1-2.346-8.169l.174-2.52-.174-1.043-.609,3.824q0,2.433,2.086,8.343A34.548,34.548,0,0,1-20.51-76.824v.521a.772.772,0,0,1-.087.348,13.641,13.641,0,0,1-2.346-6.171l-1.217-7.039a6.878,6.878,0,0,0-.087,1.13l.609,4.345-.522,1.3L-26.593-88.9a22.11,22.11,0,0,0-3.042-6.605A8.781,8.781,0,0,1-27.9-91.338a.4.4,0,0,1-.26.435q-.609,0-1.391-1.3a12.125,12.125,0,0,0-.869-1.738v.087a4.883,4.883,0,0,0,1.3,2.694,29.787,29.787,0,0,1,2.085,2.434l1.043,3.389q-3.3-1.216-6.083-6.344l1.651,3.3,4.258,4.867q2,2.259,5.649,10.255,3.477,8.169,3.477,10.689a.251.251,0,0,1-.174.087l-4.346-6.692-4.171-4.432-1.3-4.693-2.085-3.65-2-6L-33.2-90.9l4.432,11.384q1.651,4.086,1.651,3.564v.434l-.26.087q-6.865-10.168-6.866-14.6l-.347,3.042-3.129-4.433q.7,1.3,1.825,3.216l1.651,3.911v.782a.511.511,0,0,1-.26.434L-38.325-89.6a123.185,123.185,0,0,1,7.474,17.9l-1.739-.869a10.925,10.925,0,0,1-1.477-.782,12.787,12.787,0,0,1,4.78,5.822l1.912,6.171q-1.391,0-4.606-5.388a52.84,52.84,0,0,1-3.911-8.778l-2.173-7.387a27.779,27.779,0,0,0-2.607-7.387q3.39,9.82,3.39,12.08v.608q0,.087-.174.174l-2.521-5.214a20.071,20.071,0,0,0-2.52-4.867l1.13,3.3v.521a2.756,2.756,0,0,1-1.912-.956L-44.93-86.21l1.3,1.651-2.172-.782q.434,1.042,2.52,1.651a5.165,5.165,0,0,1,2.52,1.217l2.521,6.605q2.346,5.56,10.428,16.772a72.366,72.366,0,0,1,6.779,10.69,8.679,8.679,0,0,1-3.824-2.955L-31.72-59.27-34.5-67.786v.347l.869,4.519a2.86,2.86,0,0,1-.087.7l-.522-.609a13.87,13.87,0,0,1,2.086,5.475,57.27,57.27,0,0,1,.608,9.039,4.031,4.031,0,0,1-.087.782,94.213,94.213,0,0,1-5.475-13.644L-42.236-76.39-43.887-78.3q-1.651-2.868-2.521-4.345l1.652,3.563h-.174l-3.737-3.563A7.015,7.015,0,0,0-45.8-79.084l2.694,2.955L-39.8-65.7A56.375,56.375,0,0,1-46.755-75a90.549,90.549,0,0,0-6-9.039l3.39,6.258q2.781,3.563,6.691,9.559-7.995-6.431-9.559-7.908l-2.347-1.825,4.346,4.345-1.043.174h-.087l1.477.956q2.433,1.3,7.387,6.778,6.084,6.693,6.084,10.342v.435l-.087.087q-8.691-4.78-15.643-15.47l1.39,2.434-.261.087h-.26l-6.171-6.779q2,4.52,8.6,9.82h-.174a7.038,7.038,0,0,1-3.91-1.651l-2.955-2.433v.174q0,1.129,3.65,3.3l6.083,3.563,9.907,9.647Q-33.2-49.188-33.2-47.19a1.642,1.642,0,0,1-.087.522l-7.387-5.475a17.8,17.8,0,0,0,4.954,4.78l4.867,4.084a62.424,62.424,0,0,1,5.388,8.691l-.261.347q-1.042,0-5.388-4.084l-11.906-11.3-1.043-4.171A27.853,27.853,0,0,0-47.8-61.181l2.433,5.388a14.441,14.441,0,0,1,1.478,4.866v.435a.668.668,0,0,1-.261.087l-2.173-3.042a8.881,8.881,0,0,0-2.694-3.563l2.868,4.519a10.276,10.276,0,0,1-5.562-4.954l-1.825-5.735a11.946,11.946,0,0,0,1.651,5.735,1.409,1.409,0,0,1-.347.087q-.783,0-5.041-7.647l2.694,5.388h-.26l-2.608-1.3,9.212,8.43q4.52,4.345,5.215,8.864-1.912-.173-3.563-3.563-.87-2.259-4.433-5.562l4.867,7.735,4.259,4.258L-37.022-30.5q-1.652-.608-5.735-4.171a29.182,29.182,0,0,1-5.649-6.518L-54.75-54.837l2.52,6.431q1.911,3.91,1.912,5.127v.261a147.766,147.766,0,0,0-14.774-16.86l8.777,10.255-10.863-6.344,9.733,6.865q2.7,1.739,2.868,3.65h-.608l-3.737-1.477a14.549,14.549,0,0,1-4.432-3.3,1.171,1.171,0,0,1-.435.782l4.954,3.563,4.78,1.217,5.214,5.475-2.694.521a21.593,21.593,0,0,1-9.038-2.433q-4.78-2.26-6.953-2.26l11.646,4.954,4.345.869h1.3a4.121,4.121,0,0,0,1.129-.174,1.866,1.866,0,0,1,1.043.348l6.084,5.214a34.651,34.651,0,0,1,8.6,7.735,1.405,1.405,0,0,1-.608.173q-2.172,0-5.475-2.781a16.06,16.06,0,0,1-3.563-3.823l1.216,2.607a49.468,49.468,0,0,1-7.126-5.823l2.52,2.868-.173.261q-1.478,0-4.172-2.434A7.59,7.59,0,0,0-47.8-30.851l2.868,1.216,3.563,2.694a11.931,11.931,0,0,0,3.911,2.26,9.7,9.7,0,0,1,4.345,2.955,12.013,12.013,0,0,1,2.433,4.866h-.434q-1.391,0-3.911-1.912L-39.368-21.9l-4.78-1.825a26.232,26.232,0,0,1-6.083-5.91l-6.6-7.474,1.738,2.521-5.475-3.737,8.343,7.56-3.39-.434A12.878,12.878,0,0,1-51.8-29.548a10.3,10.3,0,0,1,4.346,4.085l-1.217.434q-8.082-2.694-9.82-4.606l-3.737-4.953q-5.128-5.215-6.605-9.56v.174a1.274,1.274,0,0,1-.348.695l-1.738-1.39,3.476,5.475h-.608l-7.821-3.65q2.866,1.65,7.908,4.519,4.52,2.607,4.519,5.127h-.782l-6.692-2.694q1.217,1.651,6,2.694,4.084.869,4.779,4.519h-.782L-75-32.59l4.606,2.347a5.655,5.655,0,0,1-1.3.434,8.017,8.017,0,0,1-1.738.174h-3.042a78.4,78.4,0,0,1,13.992,1.478,21.75,21.75,0,0,1,8.6,3.476,18.412,18.412,0,0,1-8,1.477l-4.693-.087a2.083,2.083,0,0,1,1.478.522l-4.432,1.043a.906.906,0,0,0-.522.087h-.608l1.825.521,1.651-.348,1.477-.521h3.824l5.388-1.13a20.3,20.3,0,0,1,5.736-.869,7.743,7.743,0,0,1,3.476.695,138.674,138.674,0,0,1,14.948,8,11.541,11.541,0,0,1,3.3,3.737L-43.1-9.647q-2.607,0-6.6-4-4.345-4.519-5.736-4.78a42.014,42.014,0,0,1,6.084,6.257q-3.3-.174-9.386-3.041-6.171-2.955-7.648-2.955h-.26q6.082,2.259,8.342,4.78a3.75,3.75,0,0,0-.608.086h-.695l-4.954-.782.522.435-5.388.782,4.084.7a17.719,17.719,0,0,1,2.347-.26q1.3-.261,2.172-.348a35.486,35.486,0,0,1,8.691,1.217q4.866,1.3,6.605,2.867-3.825,2.868-5.128,2.868h-.869a15.74,15.74,0,0,0-2.346-.26h-4.085l8.256.869q-1.3,1.911-5.04,2.52-4.171.781-5.389,1.912A15.672,15.672,0,0,1-54.316-2h.956L-57.1,1.3l9.907-6.953q3.042-2.259,4.433-2.259l5.735,1.477q5.3,1.478,5.3,2.346a6.588,6.588,0,0,1-4,2.955L-44.061.521l-2,1.652-9.125.869,6.518-.174a5.846,5.846,0,0,1,.956.087,15.7,15.7,0,0,1-5.041,3.389l-5.388,2q3.564-.609,5.388-.869l-4.345,5.04q6.779-7.039,11.385-9.038a1.526,1.526,0,0,1,.174.435q-.87,1.217-2.521,3.389l4.867-4.606Q-40.846.435-36.5.435h.695l.174.086L-37.8,4.171A12.038,12.038,0,0,1-40.846,7.3l-4.692,1.217-5.215,4q5.562-3.562,6.692-3.563a.706.706,0,0,1,.521.174A14.587,14.587,0,0,1-44.756,11.3a19.463,19.463,0,0,1,4.953-4,13.989,13.989,0,0,1-2.433,7.3,13.919,13.919,0,0,1-5.736,5.475h.174q1.217,0,3.824-2.433l3.389-2.781q1.825-7.821,4.693-10.69V8.517A17.909,17.909,0,0,1-33.111,0q3.475-5.475,7.387-5.475l1.39.174A96.677,96.677,0,0,1-17.642,4.78a25.184,25.184,0,0,1-6.17,3.65l-5.823,2.433a1.625,1.625,0,0,0-1.13,1.478v.173l1.739-.26,1.39.087a5.541,5.541,0,0,1-4.519,3.91,10.413,10.413,0,0,0-7.039,3.477A9.559,9.559,0,0,1-34.5,17.294l4.866-1.39v.434q-2,5.042-3.3,6.257a16.792,16.792,0,0,0,3.128-4.171l2.434-4.171Q-23.2,7.647-16.425,7.3q3.216,2.868,3.215,9.56l-.782,14.687q-1.565,5.3-2.868,7.039H3.3a9.219,9.219,0,0,1-2.781-4A18.769,18.769,0,0,1-.348,28.5,49.078,49.078,0,0,1,1.477,16.251Q3.3,9.3,5.562,7.3a37.56,37.56,0,0,1,4.345,8.6q2.26,5.736,4.346,7.995l-2.608-5.91q-2-4.085-2-5.475V12.08c.173,0,.26-.058.26-.174l4.259,3.129q2.953,2.259,4.519,2.259h.173A42.324,42.324,0,0,1,9.907,9.82a1.984,1.984,0,0,1,.609-.173l1.129.434L6.605,6.344,10.429,1.39q3.214-3.649,4.084-3.65,6.6,0,6.605,13.471l-.261,2.52q.261-.174.261-.261a1.21,1.21,0,0,1,.521-.087l7.387,8.083-4.692-7.213a14.92,14.92,0,0,1-2.608-8.6,1.673,1.673,0,0,1,.261-.869h.174l9.733,12.775.956.956a22.312,22.312,0,0,0-3.563-6.431h.435a6.716,6.716,0,0,1,4.171,1.651l4.085,3.042a14.268,14.268,0,0,0-6.084-4.693q-4.084-1.826-5.214-4.172L31.634,7.3q3.823,0,4.866,2.433l-.521-1.39a1.539,1.539,0,0,0,.434-.7L34.5,6.344,38.847,6l-3.216-.347Q34.24,5.823,31.894,6q-2.172.348-3.65.435-4.084,0-5.475-2.52A25.086,25.086,0,0,0,16.6-4.345q.955-1.913,4.519-1.912a4.416,4.416,0,0,1,.869.087h.522q8.6,0,13.122,2A8.528,8.528,0,0,1,38.934-2a4.125,4.125,0,0,1-.7-1.3h.7L45.8,0q4.433,2.346,6.431,2.346l.695-.434L47.885.521,42.931-2.52l5.128-.261A86.528,86.528,0,0,1,60.921.521Q57.01-2,48.319-2.955,38.673-3.911,35.11-5.649l5.214-.608,5.214.174-4.171-.869.521-.522a23.59,23.59,0,0,1-7.821,1.043L20.684-7.908q4.344-6.171,6.778-9.473L41.975-14.6q4.085.087,8,.434A15.728,15.728,0,0,1,58.4-11.645l-1.738-1.738,1.912-.783L47.972-15.3q3.388-3.129,6.778-3.129l4.52.608-1.652-.869,4-1.129-.521-.174-9.734,1.651a11.612,11.612,0,0,0-4.432,2.086l-2.52.869-4.172-.782a8.91,8.91,0,0,1,4.78-3.042l4.172-1.478L51.8-22.422l3.215-.434h.435q1.13,0,2.954.087h4.172l-5.388-.609q-1.39,0-3.824.087-3.562.174-5.388.174a17.179,17.179,0,0,1,1.825-.695l-1.738.261a9.044,9.044,0,0,1-1.3.347h-.434a22.818,22.818,0,0,1,2.085-1.738l2.086-2.173Q46.059-23.2,42.671-23.2l-2.086-.434q-1.129-.174-1.912-.348H31.547l-1.3-.434v-1.825q0-2.086,4.258-4.172a15.921,15.921,0,0,1,6.953-2.173l4.345.7a.586.586,0,0,1-.261-.522l2.173-.782a23.474,23.474,0,0,1,6.431,1.3l3.389,1.39a8.166,8.166,0,0,1-1.651-1.912L56.4-33.2l-1.738.348h-.783q-3.041,0-4.084-.956l6-1.13a10.831,10.831,0,0,0,5.475-2.173l-3.3,1.043a.669.669,0,0,1-.087-.26,2.826,2.826,0,0,1,.956-2,13.7,13.7,0,0,1-9.038,3.65,1.642,1.642,0,0,1-.522.087q-.347-.087-.347-.261l3.215-3.3-3.3,2.868a6.233,6.233,0,0,1-3.824,1.912H41.975l-1.738-.347a57.016,57.016,0,0,0,7.04-7.04q4.431-5.388,8.516-7.039l3.737-.521-1.3-.522a1.921,1.921,0,0,1,.087-.608v-.435q-4.259,2.868-5.475,2.868H52.4q4.606-4.52,4.954-6.257l-7.127,7.821-.173-1.042q1.13-2.694,1.738-4.346l3.128-2.607a12.376,12.376,0,0,1-2,.608l-.26-.086,2.52-7.474-.695.434a1.882,1.882,0,0,1-.348-.695" transform="translate(76.477 100.463)" fill="#4a6d06"/>
</svg>
