<svg id="un-logo" xmlns="http://www.w3.org/2000/svg" width="63.4" height="46.2" viewBox="0 0 63.4 46.2">
  <path id="Path_1" data-name="Path 1" d="M50,16a6.154,6.154,0,0,1-4.3-5.9,7.719,7.719,0,0,1,.2-1.5l4,.5s1.5.1,1.5,2.8A6.647,6.647,0,0,1,50,16" fill="#2aa4ca"/>
  <path id="Path_2" data-name="Path 2" d="M53.6,16a6.154,6.154,0,0,0,4.3-5.9,7.719,7.719,0,0,0-.2-1.5l-4,.5s-1.5.1-1.5,2.8A7.467,7.467,0,0,0,53.6,16" fill="#2aa4ca"/>
  <path id="Path_3" data-name="Path 3" d="M51.8,5.8a.9.9,0,0,1,.9.9,1.149,1.149,0,0,1-.6.9.1.1,0,0,0-.1.1c0,.1.2.1.3.1l5.3.6A6.243,6.243,0,0,0,51.7,4h0a6.12,6.12,0,0,0-5.9,4.4l5.3-.6c.1,0,.3,0,.3-.1s0-.1-.1-.1a1.149,1.149,0,0,1-.6-.9,1.273,1.273,0,0,1,1.1-.9" fill="#2aa4ca"/>
  <path id="Path_4" data-name="Path 4" d="M54.3,20.3l.4-.2a6.91,6.91,0,0,0-5.5-2.3c-2,0-3,.8-4.4.8a1.513,1.513,0,0,1-1.1-.3s.6,1,3,1c1.7,0,3-1,4.2-1,1.6-.1,2.8,1.4,3.4,2" fill="#2aa4ca"/>
  <path id="Path_5" data-name="Path 5" d="M48.9,20.3l-.4-.2A6.91,6.91,0,0,1,54,17.8c2,0,3,.8,4.4.8a1.513,1.513,0,0,0,1.1-.3s-.6,1-3,1c-1.7,0-3-1-4.2-1-1.6-.1-2.9,1.4-3.4,2" fill="#2aa4ca"/>
  <path id="Path_6" data-name="Path 6" d="M47.1,17.6c-.1.2-.8,0-1.3.1A4.137,4.137,0,0,1,41,15.2a4.772,4.772,0,0,0,2.2,1.4,7.4,7.4,0,0,1,2.9.8h.2a.1.1,0,0,0-.1-.1,3.059,3.059,0,0,1-1.5-1.8c-.2-.7-.2-1.3-.3-1.7a14.179,14.179,0,0,1,1.4,1.8c.4.7.5,1.5,1.3,2" fill="#2aa4ca"/>
  <path id="Path_7" data-name="Path 7" d="M44.1,16.1a.192.192,0,0,1-.3-.1,7.583,7.583,0,0,0-1.4-.5,3.767,3.767,0,0,1-2.2-3.8,3.007,3.007,0,0,0,.9,1.4c.6.6.9.6,1.2,1.1a7.209,7.209,0,0,0,1.3,1.5v-.1a5.938,5.938,0,0,1-.4-.8,3.924,3.924,0,0,1,.1-3.1,4.721,4.721,0,0,1,.6,2.4,3.854,3.854,0,0,0,.2,1.9c-.1-.2,0,0,0,.1" fill="#2aa4ca"/>
  <path id="Path_8" data-name="Path 8" d="M42.2,13.2a3.609,3.609,0,0,1-.4-.5c-.1-.2-1.1-1.2-1.2-1.5a3.4,3.4,0,0,1-.4-3.4s.1,0,.1.4a3.9,3.9,0,0,0,.8,1.9,4.2,4.2,0,0,1,.7,1.9.1.1,0,0,0,.1.1c.1.1.1-.1.1-.1V10.9a3.187,3.187,0,0,1,.6-1.7,1.409,1.409,0,0,0,.3-.5,1.438,1.438,0,0,1,.2-.3,6.116,6.116,0,0,1-.4,2.5c-.4,1.2-.6,1.4-.5,2.1Z" fill="#2aa4ca"/>
  <path id="Path_9" data-name="Path 9" d="M41.5,9.6a1.007,1.007,0,0,1-.1-.3c0-.1-.2-.9-.2-1a4.128,4.128,0,0,1-.4-1.7A4.775,4.775,0,0,1,42,3.7a2.322,2.322,0,0,1-.3.9,2.036,2.036,0,0,0-.1,1.3c0,.1.1.8.1,1.1s-.1,1.1-.1,1.3v.1l.1-.1A2,2,0,0,1,42.3,7c.5-.6,1.5-1,1.6-1.3a3.85,3.85,0,0,1-1.2,2.1c-1,1-.7.5-1,1.4a1.466,1.466,0,0,0-.2.4h0" fill="#2aa4ca"/>
  <path id="Path_10" data-name="Path 10" d="M42.1,6.2a1.577,1.577,0,0,1,.1-.4c.2-.3,0-.9.2-1.6a4.381,4.381,0,0,1,2.2-3,.37.37,0,0,0-.2.3A15.067,15.067,0,0,0,43.8,3a4.465,4.465,0,0,1-.9,1.7c-.2.2-.1.2-.1.2s.1,0,.2-.2a2.461,2.461,0,0,1,1.2-.9,4.113,4.113,0,0,0,1.5-.5,10.687,10.687,0,0,1-1.9,1.5c-.9.5-1,.4-1.6,1.1.1.1-.1.3-.1.3" fill="#2aa4ca"/>
  <path id="Path_11" data-name="Path 11" d="M44.2,3.2s0-.1.2-.2.3-.6.6-1.1A3.745,3.745,0,0,1,47.7,0s-.5.4-.6.5-.6.8-.8,1a7.632,7.632,0,0,1-1.1.8l-.1.1h.1A3.279,3.279,0,0,1,46.6,2h1.6a6.228,6.228,0,0,1-2.3.8c-1.6.3-1.3.3-1.6.5,0-.1,0,0-.1-.1" fill="#2aa4ca"/>
  <path id="Path_12" data-name="Path 12" d="M47.1,1.4s0-.1.3-.2.2-.3,1-.7A2.772,2.772,0,0,1,50.9.2s-.4,0-.4.1-.6.2-.8.3a4.566,4.566,0,0,1-1.4.5c-.4.1-.2.1-.2.1h.1a3.742,3.742,0,0,1,1.4.1,6.659,6.659,0,0,1,.7.3c.2.1.4.1.5.2H50a4.433,4.433,0,0,1-1.5-.3,1.363,1.363,0,0,0-1-.2.756.756,0,0,1-.4.1" fill="#2aa4ca"/>
  <path id="Path_13" data-name="Path 13" d="M50.3,1l.3-.1a3.385,3.385,0,0,1,.8-.3,2.733,2.733,0,0,1,2.1.3h-.6c-.1,0-.9.1-1.1.1s-.6-.1-.7,0,.4.2.4.2a1.239,1.239,0,0,1,.8.4c.4.4.6.6.7.6,0,0-1.1-.3-1.4-.4a3.515,3.515,0,0,1-.9-.7,2.269,2.269,0,0,1-.4-.1" fill="#2aa4ca"/>
  <path id="Path_14" data-name="Path 14" d="M52.9,1.4a2.7,2.7,0,0,1,1.2.3,3.075,3.075,0,0,1,1,1s-.3-.2-.5-.3a3.552,3.552,0,0,0-.9-.4s-.7-.5-.8-.6" fill="#2aa4ca"/>
  <path id="Path_15" data-name="Path 15" d="M56.3,17.7l.4-.4a7.521,7.521,0,0,0,.8-1.4,7.337,7.337,0,0,1,1.4-1.8,5.639,5.639,0,0,0-.1.7,2.424,2.424,0,0,1-.6,1.5,2.836,2.836,0,0,1-1,.9s-.2.1-.2.2.3,0,.3,0a1.689,1.689,0,0,0,.5-.2,5.938,5.938,0,0,1,.8-.4,3.385,3.385,0,0,1,.8-.3,4.132,4.132,0,0,0,2.7-1.6,4.932,4.932,0,0,1-.4.9,4.807,4.807,0,0,1-3.4,2,10.416,10.416,0,0,0-1.1-.1,2.142,2.142,0,0,0-.6-.1c.1.1-.3.1-.3.1" fill="#2aa4ca"/>
  <path id="Path_16" data-name="Path 16" d="M60.4,11.4a7.14,7.14,0,0,0-.9,2.7c-.2,1.6.1,1.1-.1,1.8l-.1.2s.2-.1.7-.4a5.02,5.02,0,0,0,2-1.2,6.116,6.116,0,0,0,1.3-3.2.7.7,0,0,0-.2.4c0,.2-.2.5-.3.5,0,0-1.2,1.3-1.3,1.4s-.8.9-1,1.2c-.1.2-.6.7-.6.6v-.2a4.338,4.338,0,0,0,.5-1,6.529,6.529,0,0,0,.2-1.1c0-.3-.2-1.5-.2-1.7" fill="#2aa4ca"/>
  <path id="Path_17" data-name="Path 17" d="M61.4,12.9s-.1-.2,0-.3a1.913,1.913,0,0,0-.1-1,7.634,7.634,0,0,1-.6-2.5c0-.8.1-.9.1-.9s.2.7.2.8a4.992,4.992,0,0,1,.7,2,6.173,6.173,0,0,0-.1.9.349.349,0,0,0,.1-.2,6.2,6.2,0,0,1,.3-1.1,19.053,19.053,0,0,0,1.3-2.5,3.726,3.726,0,0,1-.5,2.6c-.8,1.3-.8,1-1.1,1.6a2.164,2.164,0,0,1-.3.6" fill="#2aa4ca"/>
  <path id="Path_18" data-name="Path 18" d="M62.1,9.3c-.1,0,0-.5-.2-.7a6.175,6.175,0,0,1-1.5-2.9,8.175,8.175,0,0,0,.9.8,4.871,4.871,0,0,1,.8,1c.1.4.1.8.2.8s.1-.5.1-.5a8.8,8.8,0,0,1,.1-1.4,4.678,4.678,0,0,0,.2-1.6,3.724,3.724,0,0,1,.4,1.7,3.614,3.614,0,0,1-.5,1.9,1.854,1.854,0,0,0-.2.7c-.2.2-.3.2-.3.2" fill="#2aa4ca"/>
  <path id="Path_19" data-name="Path 19" d="M60.7,2.3s1.5.9,1.3,3.9c0,0,0,.1-.1,0s-.4-.6-.6-.6a6.117,6.117,0,0,1-2.1-2.2.31.31,0,0,1,.2.1c.1.1.5.3.6.4s.6.1,1,.5a2.691,2.691,0,0,1,.6.9s.1.1,0-.1-.1-.4-.3-.6A6.107,6.107,0,0,1,61,3.3c-.1-.3-.2-.8-.3-1" fill="#2aa4ca"/>
  <path id="Path_20" data-name="Path 20" d="M60.4,3.3a1.75,1.75,0,0,0-.1-.5,2.647,2.647,0,0,0-.5-1.3A3.147,3.147,0,0,0,58.6.8a5.923,5.923,0,0,1,.4.6c.2.2.2.4.3.5a3.171,3.171,0,0,1,.5.6.349.349,0,0,1,.1.2c0,.1-.1,0-.2-.1,0,0-.6-.5-.9-.5a4.3,4.3,0,0,1-1.2-.2,4.662,4.662,0,0,0,1.6.9,1.74,1.74,0,0,1,1.2.5" fill="#2aa4ca"/>
  <path id="Path_21" data-name="Path 21" d="M58.6,1.5a2.645,2.645,0,0,0-2.2-1,.349.349,0,0,0,.2.1c.1,0,.4.3.6.4a13.556,13.556,0,0,0,1.4.5" fill="#2aa4ca"/>
  <path id="Path_22" data-name="Path 22" d="M15.4,0V13.3a7.455,7.455,0,0,1-.6,3.1,5.963,5.963,0,0,1-1.6,2.2,6.983,6.983,0,0,1-2.4,1.3,10.069,10.069,0,0,1-3.1.5,10.588,10.588,0,0,1-3.1-.5,6.814,6.814,0,0,1-2.4-1.3A6.717,6.717,0,0,1,.6,16.3a7.306,7.306,0,0,1-.6-3V0H4.1V13.3A4.03,4.03,0,0,0,5,16.2a3.8,3.8,0,0,0,2.7.8,3.573,3.573,0,0,0,2.6-.9,4.03,4.03,0,0,0,.9-2.9V0Z" fill="#2aa4ca"/>
  <path id="Path_23" data-name="Path 23" d="M35.1,20.1H30.9l-8-13.2V20.1H18.8V0h4.1L31,13.2V0h4.1Z" fill="#2aa4ca"/>
  <path id="Path_24" data-name="Path 24" d="M3,33a2.865,2.865,0,0,1-2.1-.8A2.583,2.583,0,0,1,0,30.1v-.2a2.726,2.726,0,0,1,.4-1.6,3.46,3.46,0,0,1,1-1.1,2.3,2.3,0,0,1,1.4-.4,2.407,2.407,0,0,1,1.9.8,3.606,3.606,0,0,1,.7,2.2v.7H1.6a1.389,1.389,0,0,0,.5,1,1.777,1.777,0,0,0,1,.4,1.513,1.513,0,0,0,1.4-.7l.8.9a2.723,2.723,0,0,1-1,.8c-.4,0-.8.1-1.3.1m-.2-4.9a1.136,1.136,0,0,0-.8.3,1.884,1.884,0,0,0-.4.9H3.8v-.1a.984.984,0,0,0-.3-.8.779.779,0,0,0-.7-.3" fill="#2aa4ca"/>
  <path id="Path_25" data-name="Path 25" d="M7.8,26.9v.7a2.136,2.136,0,0,1,1.7-.8,1.678,1.678,0,0,1,1.4.6,2.648,2.648,0,0,1,.5,1.7V33H9.9V29.1a1.165,1.165,0,0,0-.2-.7,1.165,1.165,0,0,0-.7-.2,1,1,0,0,0-1,.6v4.3H6.3v-6l1.5-.2Z" fill="#2aa4ca"/>
  <path id="Path_26" data-name="Path 26" d="M14.9,31,16,26.9h1.7l-2,6H14.2l-2-6h1.6Z" fill="#2aa4ca"/>
  <path id="Path_27" data-name="Path 27" d="M18.4,25.3a1.421,1.421,0,0,1,.2-.6c.1-.2.4-.2.6-.2a.845.845,0,0,1,.6.2.735.735,0,0,1,.2.6,1.072,1.072,0,0,1-.2.6.735.735,0,0,1-.6.2.707.707,0,0,1-.8-.8m1.7,7.6H18.5v-6h1.6Z" fill="#2aa4ca"/>
  <path id="Path_28" data-name="Path 28" d="M24.8,28.4h-.6A1.209,1.209,0,0,0,23,29v3.9H21.4v-6H23v.7a1.561,1.561,0,0,1,1.3-.8.9.9,0,0,1,.5.1Z" fill="#2aa4ca"/>
  <path id="Path_29" data-name="Path 29" d="M25.2,29.9a4.146,4.146,0,0,1,.3-1.6,2.132,2.132,0,0,1,1-1.1,2.41,2.41,0,0,1,1.5-.4,2.438,2.438,0,0,1,2,.8,3.373,3.373,0,0,1,.9,2V30a2.732,2.732,0,0,1-.8,2.2,2.438,2.438,0,0,1-2,.8,2.792,2.792,0,0,1-2-.8,3.013,3.013,0,0,1-.9-2.3Zm1.6.1a2.269,2.269,0,0,0,.3,1.3,1.06,1.06,0,0,0,1.8,0,2.649,2.649,0,0,0,.3-1.4,2.269,2.269,0,0,0-.3-1.3,1.06,1.06,0,0,0-1.8,0,2.42,2.42,0,0,0-.3,1.4" fill="#2aa4ca"/>
  <path id="Path_30" data-name="Path 30" d="M33.3,26.9v.7a2.136,2.136,0,0,1,1.7-.8,1.678,1.678,0,0,1,1.4.6,2.648,2.648,0,0,1,.5,1.7V33H35.3V29.1a1.165,1.165,0,0,0-.2-.7,1.165,1.165,0,0,0-.7-.2,1,1,0,0,0-1,.6v4.3H31.8v-6l1.5-.2Z" fill="#2aa4ca"/>
  <path id="Path_31" data-name="Path 31" d="M39.7,26.9v.7a2.136,2.136,0,0,1,1.7-.8,1.6,1.6,0,0,1,1.6.9,2.019,2.019,0,0,1,1.8-.9,1.678,1.678,0,0,1,1.4.6,2.86,2.86,0,0,1,.5,1.7V33H45.1V29.2a1.884,1.884,0,0,0-.2-.8c-.1-.2-.4-.2-.7-.2a.963.963,0,0,0-1,.7V33H41.6V29.2a1.884,1.884,0,0,0-.2-.8c-.1-.2-.4-.2-.7-.2a1,1,0,0,0-1,.6v4.3H38.1v-6C38.2,26.9,39.7,26.9,39.7,26.9Z" fill="#2aa4ca"/>
  <path id="Path_32" data-name="Path 32" d="M50.7,33a2.865,2.865,0,0,1-2.1-.8,3.113,3.113,0,0,1-.8-2.2v-.2a2.726,2.726,0,0,1,.4-1.6,3.46,3.46,0,0,1,1-1.1,2.3,2.3,0,0,1,1.4-.4,2.407,2.407,0,0,1,1.9.8,3.606,3.606,0,0,1,.7,2.2v.7H49.4a1.389,1.389,0,0,0,.5,1,1.777,1.777,0,0,0,1,.4,1.513,1.513,0,0,0,1.4-.7l.8.9a2.723,2.723,0,0,1-1,.8,6.753,6.753,0,0,1-1.4.2m-.2-4.9a1.136,1.136,0,0,0-.8.3,1.884,1.884,0,0,0-.4.9h2.2v-.1a.984.984,0,0,0-.3-.8.779.779,0,0,0-.7-.3" fill="#2aa4ca"/>
  <path id="Path_33" data-name="Path 33" d="M55.5,26.9v.7a2.136,2.136,0,0,1,1.7-.8,1.678,1.678,0,0,1,1.4.6,2.648,2.648,0,0,1,.5,1.7V33H57.5V29.1a1.165,1.165,0,0,0-.2-.7,1.165,1.165,0,0,0-.7-.2,1,1,0,0,0-1,.6v4.3H54v-6l1.5-.2Z" fill="#2aa4ca"/>
  <path id="Path_34" data-name="Path 34" d="M62.3,25.4v1.5h1v1.2h-1v3a.749.749,0,0,0,.1.5c.1.1.2.1.5.1h.5v1.2a2.959,2.959,0,0,1-1,.2,1.53,1.53,0,0,1-1.7-1.7V28.2h-.9V27h.9V25.5h1.6Z" fill="#2aa4ca"/>
  <path id="Path_35" data-name="Path 35" d="M5.4,40.8A3.593,3.593,0,0,1,4.8,43a2.136,2.136,0,0,1-1.7.8,2.035,2.035,0,0,1-1.5-.6v2.9H0V37.7H1.5v.6A1.8,1.8,0,0,1,3,37.6a2.136,2.136,0,0,1,1.7.8,4.267,4.267,0,0,1,.7,2.4Zm-1.6-.1a2.269,2.269,0,0,0-.3-1.3.975.975,0,0,0-.9-.4,1,1,0,0,0-1,.6V42a1,1,0,0,0,1,.6c.8,0,1.2-.6,1.2-1.9" fill="#2aa4ca"/>
  <path id="Path_36" data-name="Path 36" d="M9.7,39.3H9.1a1.209,1.209,0,0,0-1.2.6v4H6.4v-6H7.9v.7a1.561,1.561,0,0,1,1.3-.8.9.9,0,0,1,.5.1Z" fill="#2aa4ca"/>
  <path id="Path_37" data-name="Path 37" d="M10.1,40.7a4.146,4.146,0,0,1,.3-1.6,2.132,2.132,0,0,1,1-1.1,2.41,2.41,0,0,1,1.5-.4,2.438,2.438,0,0,1,2,.8,3.373,3.373,0,0,1,.9,2v.4A2.732,2.732,0,0,1,15,43a2.973,2.973,0,0,1-2,.8,2.792,2.792,0,0,1-2-.8,3.239,3.239,0,0,1-.9-2.3Zm1.6.1a2.269,2.269,0,0,0,.3,1.3,1.06,1.06,0,0,0,1.8,0,2.649,2.649,0,0,0,.3-1.4,2.269,2.269,0,0,0-.3-1.3,1.06,1.06,0,0,0-1.8,0,2.649,2.649,0,0,0-.3,1.4" fill="#2aa4ca"/>
  <path id="Path_38" data-name="Path 38" d="M16.5,40.7a3.593,3.593,0,0,1,.6-2.2,1.95,1.95,0,0,1,1.8-.8,1.8,1.8,0,0,1,1.5.7l.1-.6H22v5.8a2.3,2.3,0,0,1-.4,1.4,2.836,2.836,0,0,1-1,.9,3.339,3.339,0,0,1-1.5.3,3.079,3.079,0,0,1-1.3-.3,2.178,2.178,0,0,1-.9-.7l.7-1a1.746,1.746,0,0,0,1.4.7,1.493,1.493,0,0,0,1-.3,1.333,1.333,0,0,0,.4-1v-.3a1.816,1.816,0,0,1-1.4.6,2.136,2.136,0,0,1-1.7-.8,4.029,4.029,0,0,1-.8-2.4Zm1.6.1a2.5,2.5,0,0,0,.3,1.3,1.05,1.05,0,0,0,.9.5,1.1,1.1,0,0,0,1-.5V39.6c-.2-.4-.5-.5-1-.5a1.05,1.05,0,0,0-.9.5c-.2.1-.3.6-.3,1.2" fill="#2aa4ca"/>
  <path id="Path_39" data-name="Path 39" d="M26.6,39.3H26a1.209,1.209,0,0,0-1.2.6v4H23.2v-6h1.5v.7a1.561,1.561,0,0,1,1.3-.8.9.9,0,0,1,.5.1Z" fill="#2aa4ca"/>
  <path id="Path_40" data-name="Path 40" d="M30.6,43.8c-.1-.2-.1-.3-.2-.5a2.127,2.127,0,0,1-1.5.7,1.978,1.978,0,0,1-1.4-.5,2.168,2.168,0,0,1-.5-1.4,1.8,1.8,0,0,1,.7-1.5,2.981,2.981,0,0,1,2-.5h.7v-.3a1.445,1.445,0,0,0-.2-.7c-.1-.2-.4-.2-.7-.2a.845.845,0,0,0-.6.2.764.764,0,0,0-.2.5H27.1a1.929,1.929,0,0,1,.3-1,2.178,2.178,0,0,1,.9-.7,2.745,2.745,0,0,1,1.3-.2,2.352,2.352,0,0,1,1.7.6,2.111,2.111,0,0,1,.6,1.6v2.6a3.918,3.918,0,0,0,.2,1.3v.1l-1.5-.1Zm-1.3-1.1c.2,0,.5,0,.6-.2a.781.781,0,0,0,.4-.4v-1h-.6c-.8,0-1.2.3-1.3.8V42a.764.764,0,0,0,.2.5,2.544,2.544,0,0,0,.7.2" fill="#2aa4ca"/>
  <path id="Path_41" data-name="Path 41" d="M34.8,37.8v.7a2.136,2.136,0,0,1,1.7-.8,1.6,1.6,0,0,1,1.6.9,2.019,2.019,0,0,1,1.8-.9,1.678,1.678,0,0,1,1.4.6,2.86,2.86,0,0,1,.5,1.7v3.9H40.2V40.1a1.884,1.884,0,0,0-.2-.8.779.779,0,0,0-.7-.3.963.963,0,0,0-1,.7v4.2H36.7V40.1a1.884,1.884,0,0,0-.2-.8c-.1-.3-.3-.3-.7-.3a1,1,0,0,0-1,.6v4.3H33.2v-6A9.151,9.151,0,0,1,34.8,37.8Z" fill="#2aa4ca"/>
  <path id="Path_42" data-name="Path 42" d="M44.5,37.8v.7a2.136,2.136,0,0,1,1.7-.8,1.6,1.6,0,0,1,1.6.9,2.019,2.019,0,0,1,1.8-.9,1.678,1.678,0,0,1,1.4.6,2.86,2.86,0,0,1,.5,1.7v3.9H50V40.1a1.884,1.884,0,0,0-.2-.8.779.779,0,0,0-.7-.3.963.963,0,0,0-1,.7v4.2H46.5V40.1a1.884,1.884,0,0,0-.2-.8c-.1-.3-.4-.3-.7-.3a1,1,0,0,0-1,.6v4.3H43v-6A8.084,8.084,0,0,1,44.5,37.8Z" fill="#2aa4ca"/>
  <path id="Path_43" data-name="Path 43" d="M55.6,43.9a2.865,2.865,0,0,1-2.1-.8,3.113,3.113,0,0,1-.8-2.2v-.2a2.726,2.726,0,0,1,.4-1.6,3.46,3.46,0,0,1,1-1.1,2.3,2.3,0,0,1,1.4-.4,2.407,2.407,0,0,1,1.9.8,3.606,3.606,0,0,1,.7,2.2v.7H54.3a1.389,1.389,0,0,0,.5,1,1.777,1.777,0,0,0,1,.4,1.513,1.513,0,0,0,1.4-.7l.8.9a2.723,2.723,0,0,1-1,.8,7.845,7.845,0,0,1-1.4.2m-.2-5a1.135,1.135,0,0,0-.8.3,1.884,1.884,0,0,0-.4.9h2.2V40a.984.984,0,0,0-.3-.8.779.779,0,0,0-.7-.3" fill="#2aa4ca"/>
</svg>
