<svg width="27" height="27" viewBox="0 0 27 27" fill="none" xmlns="http://www.w3.org/2000/svg">
<path d="M23.0441 3.95225C17.7713 -1.31902 9.22352 -1.31776 3.95225 3.95515C-1.31903 9.22806 -1.31776 17.7758 3.95515 23.0471C9.22806 28.3183 17.7758 28.3171 23.047 23.0442C25.5786 20.5118 27.0004 17.0775 26.9996 13.4968C26.9989 9.91662 25.5761 6.4834 23.0441 3.95225ZM20.4449 18.805C20.4443 18.8056 20.4438 18.8062 20.4431 18.8068V18.8023L19.7591 19.4818C18.8745 20.3776 17.5861 20.7461 16.3616 20.4538C15.1279 20.1236 13.9551 19.5979 12.8876 18.8968C11.8959 18.263 10.9768 17.5221 10.1471 16.6873C9.38368 15.9294 8.69781 15.0973 8.09959 14.2033C7.44527 13.2413 6.92736 12.1934 6.56059 11.0893C6.14014 9.79222 6.48856 8.36897 7.46061 7.41279L8.26159 6.61181C8.48429 6.38811 8.84615 6.38732 9.0698 6.61001C9.07038 6.61059 9.07101 6.61117 9.07159 6.61181L11.6006 9.14079C11.8243 9.36349 11.8251 9.72535 11.6024 9.949C11.6018 9.94958 11.6012 9.95016 11.6006 9.95079L10.1156 11.4358C9.68948 11.8572 9.6359 12.527 9.98959 13.0108C10.5267 13.7479 11.1211 14.4415 11.7671 15.0853C12.4874 15.8087 13.2705 16.4668 14.1071 17.0518C14.5905 17.389 15.2459 17.3322 15.6641 16.9168L17.0996 15.4588C17.3223 15.2351 17.6841 15.2344 17.9078 15.457C17.9083 15.4576 17.9089 15.4582 17.9096 15.4588L20.4431 17.9968C20.6668 18.2195 20.6676 18.5813 20.4449 18.805Z" fill="#237d48"/>
</svg>
