<svg width="28" height="24" viewBox="0 0 28 24" fill="none" xmlns="http://www.w3.org/2000/svg">
<path d="M27.4166 8.50005H22.6331L17.1924 0.586326C17.0099 0.320873 16.6468 0.253553 16.3813 0.43599L15.4197 1.09689C15.1542 1.27938 15.0869 1.64256 15.2694 1.90807L19.8014 8.50005H8.19864L12.7306 1.90807C12.9131 1.64256 12.8459 1.27938 12.5803 1.09689L11.6186 0.43599C11.3532 0.253553 10.99 0.320873 10.8076 0.586326L5.36687 8.50005H0.583352C0.261187 8.50005 0 8.76118 0 9.0834V10.25C0 10.5722 0.261187 10.8334 0.583352 10.8334H1.32344L4.88945 22.0409C5.19936 23.0133 6.09257 23.6667 7.11282 23.6667H20.8872C21.9075 23.6667 22.8007 23.0133 23.1106 22.0403L26.6766 10.8334H27.4167C27.7389 10.8334 28.0001 10.5722 28.0001 10.25V9.0834C28 8.76118 27.7388 8.50005 27.4166 8.50005Z" fill="#0d2ea1"/>
</svg>
