<svg width="19" height="13" viewBox="0 0 19 13" fill="none" xmlns="http://www.w3.org/2000/svg">
<path d="M10.2414 11.7781L18.6965 3.32284C18.8922 3.12729 19 2.86623 19 2.58787C19 2.30952 18.8922 2.04846 18.6965 1.85291L18.074 1.23024C17.6683 0.82506 17.009 0.82506 16.604 1.23024L9.50394 8.33031L2.39599 1.22236C2.20028 1.0268 1.93938 0.918823 1.66118 0.918823C1.38267 0.918823 1.12177 1.0268 0.925898 1.22236L0.303537 1.84503C0.107822 2.04074 3.83119e-06 2.30164 3.83451e-06 2.58C3.83783e-06 2.85835 0.107822 3.11941 0.303537 3.31497L8.76635 11.7781C8.96268 11.9741 9.22481 12.0818 9.50348 12.0812C9.78322 12.0818 10.0452 11.9741 10.2414 11.7781Z" fill="#707070"/>
</svg>
