<svg width="26" height="26" viewBox="0 0 26 26" fill="none" xmlns="http://www.w3.org/2000/svg">
<circle cx="13" cy="13" r="13" transform="rotate(-180 13 13)" fill="#0d2ea1"/>
<path d="M13.4439 19.1155L18.5058 14.0535C18.6229 13.9364 18.6875 13.7801 18.6875 13.6135C18.6875 13.4468 18.6229 13.2906 18.5058 13.1735L18.1331 12.8007C17.8902 12.5581 17.4955 12.5581 17.2531 12.8007L13.0024 17.0514L8.74694 12.796C8.62977 12.6789 8.47357 12.6143 8.30702 12.6143C8.14028 12.6143 7.98408 12.6789 7.86682 12.796L7.49422 13.1688C7.37705 13.2859 7.3125 13.4421 7.3125 13.6088C7.3125 13.7754 7.37705 13.9317 7.49422 14.0488L12.5608 19.1155C12.6783 19.2329 12.8352 19.2973 13.0021 19.297C13.1696 19.2973 13.3264 19.2329 13.4439 19.1155Z" fill="white"/>
<line x1="12.7109" y1="17.875" x2="12.7109" y2="6.5" stroke="white" stroke-width="2"/>
</svg>
