<svg width="79" height="79" viewBox="0 0 79 79" fill="none" xmlns="http://www.w3.org/2000/svg">
<circle cx="39.5" cy="39.5" r="39.5" fill="#0d2ea1"/>
<g clip-path="url(#clip0)">
<path d="M57.5357 56.2978L46.7295 45.4916C48.8227 42.9061 50.083 39.6207 50.083 36.0424C50.083 27.749 43.3349 21.0009 35.0415 21.0009C26.7481 21.0009 20 27.7489 20 36.0424C20 44.3358 26.7481 51.0839 35.0415 51.0839C38.6198 51.0839 41.9052 49.8236 44.4908 47.7304L55.2969 58.5366C55.6057 58.8453 56.011 59.0005 56.4163 59.0005C56.8217 59.0005 57.227 58.8453 57.5358 58.5366C58.1548 57.9175 58.1548 56.9168 57.5357 56.2978ZM35.0415 47.9172C28.4929 47.9172 23.1667 42.591 23.1667 36.0424C23.1667 29.4937 28.4929 24.1675 35.0415 24.1675C41.5902 24.1675 46.9164 29.4937 46.9164 36.0424C46.9164 42.591 41.5901 47.9172 35.0415 47.9172Z" fill="#fff"/>
</g>
<defs>
<clipPath id="clip0">
<rect width="38" height="38" fill="white" transform="translate(20 21)"/>
</clipPath>
</defs>
</svg>
