<svg xmlns="http://www.w3.org/2000/svg" width="218.88" height="62.862" viewBox="0 0 218.88 62.862">
  <g id="Group_3" data-name="Group 3" transform="translate(-612.761 -408.978)">
    <path id="Path_11" data-name="Path 11" d="M-90.542,0h-14.7V-61.141h14.7Zm45.313-24.355H-69V0H-83.736V-61.141h40.9v11.38H-69v14.067h23.768Z" transform="translate(718 471)" fill="#237d48"/>
    <path id="Path_12" data-name="Path 12" d="M-13.479-11.422h-20.2L-37.205,0H-52.952l22.424-61.141h13.857L5.921,0H-9.91ZM-30.15-22.8h13.144L-23.6-44.008Z" transform="translate(721 471)" fill="#7cbf33"/>
    <path id="Path_13" data-name="Path 13" d="M55.517-20.7A22.329,22.329,0,0,1,52.074-9.427a20.782,20.782,0,0,1-8.839,7.58,30.086,30.086,0,0,1-13,2.688q-12.052,0-18.98-7.853T4.329-29.185v-3.023A37.009,37.009,0,0,1,7.457-47.934a23.7,23.7,0,0,1,9.007-10.414A25.131,25.131,0,0,1,30.07-62.022q11.128,0,17.889,5.858t7.685,16.146h-14.7q-.168-5.585-2.813-8.021T30.07-50.475q-5.5,0-8.062,4.115T19.32-33.216v4.325q0,9.784,2.457,13.983t8.461,4.2q5.081,0,7.769-2.394t2.855-7.6Z" transform="translate(721 471)" fill="#5d8f25"/>
    <path id="Path_14" data-name="Path 14" d="M108.515-20.7a22.329,22.329,0,0,1-3.443,11.275,20.782,20.782,0,0,1-8.839,7.58,30.086,30.086,0,0,1-13,2.688q-12.052,0-18.98-7.853T57.326-29.185v-3.023a37.009,37.009,0,0,1,3.128-15.726,23.7,23.7,0,0,1,9.007-10.414,25.131,25.131,0,0,1,13.605-3.674q11.128,0,17.889,5.858t7.685,16.146h-14.7q-.168-5.585-2.813-8.021t-8.062-2.436q-5.5,0-8.062,4.115T72.317-33.216v4.325q0,9.784,2.457,13.983t8.461,4.2q5.081,0,7.769-2.394t2.855-7.6Z" transform="translate(723 471)" fill="#3e6215"/>
  </g>
</svg>
