<svg width="17" height="17" viewBox="0 0 17 17" fill="none" xmlns="http://www.w3.org/2000/svg">
<path d="M15.941 15.1643L12.3604 11.5846C13.3174 10.4525 13.8944 8.99051 13.8944 7.39579C13.8944 3.81168 10.9787 0.9 7.39721 0.9C3.81236 0.9 0.9 3.81507 0.9 7.39579C0.9 10.9765 3.81572 13.8916 7.39721 13.8916C8.99228 13.8916 10.4546 13.3147 11.5869 12.3579L15.1675 15.9377C15.2726 16.0428 15.4145 16.1 15.5542 16.1C15.692 16.1 15.8349 16.0475 15.9416 15.937C16.153 15.7249 16.1528 15.3761 15.941 15.1643ZM1.99488 7.39579C1.99488 4.41782 4.41844 1.998 7.39388 1.998C10.3726 1.998 12.7929 4.42106 12.7929 7.39579C12.7929 10.3706 10.3725 12.7969 7.39388 12.7969C4.41852 12.7969 1.99488 10.3738 1.99488 7.39579Z" fill="#0d2ea1" stroke="black" stroke-width="0.2"/>
</svg>
