<svg width="51" height="51" viewBox="0 0 51 51" fill="none" xmlns="http://www.w3.org/2000/svg">
<path d="M25.5 0C11.4398 0 0 11.4398 0 25.5C0 39.5602 11.4398 51 25.5 51C39.5602 51 51 39.5602 51 25.5C51 11.4398 39.5602 0 25.5 0ZM39.7519 18.7895L23.4549 34.9586C22.4962 35.9173 20.9624 35.9812 19.9398 35.0226L11.312 27.1617C10.2895 26.203 10.2256 24.6053 11.1203 23.5827C12.0789 22.5602 13.6767 22.4962 14.6992 23.4549L21.5376 29.718L36.109 15.1466C37.1316 14.1241 38.7293 14.1241 39.7519 15.1466C40.7744 16.1692 40.7744 17.7669 39.7519 18.7895Z" fill="#000E5D"/>
</svg>
