<svg xmlns="http://www.w3.org/2000/svg" width="798.085" height="231.101" viewBox="0 0 798.085 231.101">
  <g id="the-nature-conservancy" transform="translate(0)">
    <path id="Path_44" data-name="Path 44" d="M587.252,105.255a105.429,105.429,0,0,0,145.964,97.308c-14.71,3.415-22.975-2.171-23.775-4.32-1.59-4.222,10.759-1.348-.875-7.332-7.027-3.617-10.028-10.788-10.794-13.921l-2.39-1.336c-.415-.121-.7-.2-.645-.144,0,0-50.517-7.113-53.293-18.989-2.961-12.717-19.26-9.67-19.462-19.824-.081-5.063,6.053-3.2,7.528-5.408,1.832-2.788-.68-3.963-8.346-8.564-20.251-12.164-17.313-31.326-14.025-34.316,2.143-1.947,4.493-.858,6.635.236,2.108,1.071,4.009,2.142,5.31.328,2.638-3.646-12.314-24.259,19.277-47.689,0,0,3.744,12.078,15.251,16.213,12.222,4.4-7.6,20.953-3.295,32.069,2.436,6.243,7.366-1.59,11.888-5.973,3.882-3.761,9.238-13.368,15.965-11.271,5.915,1.849,3.859,9.607,5.189,13.725,1.728,5.351,6,3.669,8.311,8.346,2.223,4.481.651,6.353-6.111,12.187-12.331,10.667-6.451,22.549-2.966,20.21,5.207-3.485,4.233-7.315,12.666-7.793,6.335-.351,8.512,5.886,6.819,10.385-1.711,4.5-2.707,5.938-1.682,9.175,2.615,8.265,1.083,5.742-3.219,13.259-3.675,6.422-3.536,12.458.76,22.727,8.674,4.406,11.922,1.676,15.51-1.06,2.845-2.166,5.892-4.331,12.026-2.943,31.021,7.073,14.163-3.03,19.439-8.179,2.718-2.655,4.792-2.465,7.263-2.287a13.7,13.7,0,0,0,6.8-.835c9.572-6,10.488-8.035,23.1,1.837a105.4,105.4,0,0,0,3.732-105.2c-4.389-4.1-8.017-6.635-6.963-.057.587,3.629,16.61,33.48-7.43,56.553,0,0-.011-.248-.046-.634-.259-2.736-1.906-13.443-11.306-14.848-11.444-1.722-1.941-19.214-7.505-27.375-7.85-11.5-9.883,4.285-12.625,7.741-2.828,3.531-14.462,10.108-14.462,1.037,0-10.321-7.245-11.611-10.027-14.969-2.678-3.22-1.578-4.936,3.415-10.523,9.152-10.206,2.575-16.628-.109-14.272-4.009,3.5-3.058,4.268-10.39,5.84-5.506,1.2-5.247-8.2-4.584-12.037,3.8-21.806-10.713-30.1-31.493-30.52a105.456,105.456,0,0,0-85.034,103.442" fill="#47ab48"/>
    <path id="Path_45" data-name="Path 45" d="M701.315,178.883s-69.288-26.9-71.7-95.085c0,0,6.7,51.837,71.7,95.085M700.8,0a82.49,82.49,0,0,1,32.657,12.262c5.857,5.489,14.157,18.949,1.353,46.543,0,0,16.4-22.14,12.256-35.583,13.76,13.806,25.325,35.686,25.763,70.359,0,0,15.291-86.871-72.029-93.581m69.256,172.312c-5.287,3.208-13.858,10.771-27.876,6.341a23.857,23.857,0,0,0,14.307,3.991c-11.254,5.817-23.447,7.205-42.753,2.373,0,0,39.084,23.055,66.391-21.069,0,0-6.78,6.365-10.069,8.364" fill="#47ab48"/>
    <path id="Path_46" data-name="Path 46" d="M33.507,79.558c0,7.585,1.434,9.688,6.819,9.688v1.872H18V89.246c4.515,0,7.153-1.33,7.153-10.022V31.132H16.026c-8.461,0-12.314,2.407-12.867,9.02H1.3V25.729h1.86A8.379,8.379,0,0,0,6.58,27.491a26.523,26.523,0,0,0,6.042.547H45.6c5.5,0,8.029-.662,10-2.31h1.975V40.15h-1.2c-1.215-5.281-3.294-9.02-13.305-9.02H33.5V79.558Zm67.95,2.2c0,5.944,1.106,7.493,6.261,7.493V91.12H87.5V89.248c5.293,0,6.491-1.227,6.491-6.284V63.71c0-5.178-3.081-8.478-7.8-8.478-4.395,0-7.585,2.085-11.323,7.384V83.967c0,4.055,1.647,5.282,6.474,5.282v1.872H60.46V89.249c5.817-.115,6.935-1.227,6.935-7.493V31.019c0-5.068-1.44-5.834-6.935-5.834V23.319l12.527-1.33h1.872V58.867c4.948-5.731,8.582-7.81,13.621-7.81,6.5,0,12.976,4.285,12.976,13.529V81.755Zm39.4-16.29c.34-8.587-5.495-12.107-10.436-12.107-6.485,0-10.338,4.844-10.782,12.107Zm-21.219,1.872c-.207,17.5,10.223,21.9,15.51,21.9,5.385,0,8.121-1.86,13.736-8.138v2.868c-4.717,6.047-9.238,8.351-16.046,8.351-12.205,0-21-8.467-21-20.251,0-11.761,8.576-21.011,19.565-21.011,9.019,0,17.371,7.257,16.829,16.282H119.641ZM249.32,114.775h-2.96l-70.4-86.889h-.346V98.02c0,10.12,4.015,13.783,13.074,13.783v2.972H158.371V111.8c8.357,0,12.366-2.615,12.366-17.094V36.261c0-11.168-2.96-17.446-14.808-18.5V14.806h25.607l62.376,77.806h.351V34.17c0-13.091-3.484-16.409-12.193-16.409V14.806h30.146v2.955c-9.751,0-12.9,4.02-12.9,15.706Zm92.115-61.941H362.86v4.533H341.435V97.148c0,8.553,4.354,12.907,11.156,12.907,4.527,0,7.845-1.739,11.5-5.927l1.918,2.269c-5.408,6.8-11.669,10.287-18.638,10.287-10.459,0-17.78-7.321-17.78-17.964V57.366H317.918V54.411c8.357-4.193,15.326-11.7,20.556-22.336h2.96V52.834Zm91.678,50.248c0,6.8,2.263,8.72,10.626,8.72v2.972l-22.474,1.215V104.648h-.346c-6.105,8.023-13.247,12.038-21.621,12.038-12.193,0-20.2-9.244-20.2-20.752V64.349c0-5.932-2.091-8.2-10.983-8.2v-2.96l19.865-1.929h2.966V95.4c0,8.726,5.575,13.961,13.938,13.961,5.921,0,11.323-3.317,16.38-10.125V65.922c0-8.553-1.4-9.6-12.02-9.774v-2.96l20.9-1.929h2.966v51.823Zm38.285,0c0,6.8,2.085,8.72,10.275,8.72v2.972H449.091V111.8c9.411,0,10.459-2.436,10.459-11.865V66.267c0-9.065-2.275-10.119-12.723-10.119v-2.96l21.6-1.929H471.4V64.7c11.5-9.947,16.9-13.443,21.08-13.443,3.49,0,8.2,2.1,11.335,4.89l-4.711,11c-5.051-2.793-10.46-5.414-14.63-5.414-4.014,0-7.5,2.1-13.074,7.5v33.847Zm79.37-28.962c.524-13.61-8.708-19.191-16.553-19.191-10.281,0-16.386,7.678-17.071,19.191Zm-33.624,2.967c-.352,27.744,16.2,34.713,24.564,34.713,8.542,0,12.89-2.96,21.777-12.907v4.544c-7.487,9.59-14.641,13.253-25.44,13.253-19.34,0-33.279-13.431-33.279-32.1s13.587-33.325,31.015-33.325c14.284,0,27.525,11.513,26.661,25.826ZM63.4,139.282c-3.646-14.1-11.346-20.245-24.259-20.245-18,0-27.663,14.5-27.663,33.705,0,22.468,11.617,37.218,28.441,37.218,11.738,0,20.481-5.483,26.1-16.455l1.947,1.832c-4.948,11.882-16.818,19.329-31.165,19.329-18.006,0-36.8-12.285-36.8-37.224,0-23.77,16.311-41.279,38.624-41.279,9.388,0,16.438,3.139,20.867,3.139a4.1,4.1,0,0,0,4.037-2.356h2.1v22.336Zm34.53,8.625c-9.78,0-15.655,8.616-15.655,21.933,0,11.894,4.959,21.823,15.655,21.823,10.955,0,15.654-10.58,15.654-21.823,0-11.618-4.953-21.933-15.654-21.933m0,46.37c-14.48,0-25.3-10.453-25.3-24.438,0-14.094,10.822-24.547,25.3-24.547s25.3,10.454,25.3,24.547c0,13.984-10.822,24.438-25.3,24.438m78.895-11.493c0,6,1.3,7.827,7.821,7.827v2.229H160.008v-2.229c6.249,0,7.948-1.428,7.948-5.737V160.707c0-7.436-5.351-10.575-10.3-10.575-4.573,0-8.611,2.862-13.184,9v22.6c0,7.044.91,8.875,7.827,8.875v2.229H127.91V190.61c6.128,0,7.695-.518,7.695-8.875V155.748c0-5.616-1.44-6.791-7.695-6.791v-2.223l14.341-1.446h2.223v9.267c5.483-6.261,10.822-9.267,16.7-9.267,7.7,0,15.655,5.495,15.655,16.593ZM215,159.528c-.91-7.7-6-11.617-11.479-11.617-4.567,0-7.7,2.477-7.7,6.266,0,11.755,24.265,8.616,24.265,25.86a14.594,14.594,0,0,1-14.606,14.232c-5.086,0-9.521-3.4-11.744-3.4a3.168,3.168,0,0,0-3,3.133h-2.212v-15.8h2.212c1.964,9.665,9.135,13.46,14.871,13.46a7.867,7.867,0,0,0,8.092-7.977c0-12.919-24.524-9.4-24.524-25.071,0-7.194,6.393-13.322,14.082-13.322,4.832,0,6.272,2.217,9.4,2.217,1.169,0,2.085-.651,2.736-2.217h2.217v14.232H215Zm44.448,2.872c.386-10.189-6.526-14.353-12.4-14.353-7.7,0-12.256,5.737-12.786,14.353Zm-25.181,2.229c-.259,20.757,12.13,25.993,18.4,25.993,6.393,0,9.659-2.223,16.3-9.664v3.387c-5.6,7.182-10.955,9.935-19.041,9.935-14.48,0-24.916-10.056-24.916-24.04,0-13.967,10.171-24.945,23.217-24.945,10.7,0,20.619,8.628,19.963,19.335H234.271Zm56.9,19.462c0,5.091,1.561,6.526,7.7,6.526v2.223H274.477v-2.223c7.033,0,7.822-1.832,7.822-8.876V156.526c0-6.791-1.7-7.574-9.52-7.574v-2.217l16.173-1.44h2.223v10.056c8.611-7.453,12.654-10.056,15.781-10.056,2.609,0,6.134,1.567,8.484,3.657l-3.531,8.219c-3.784-2.079-7.827-4.043-10.955-4.043-2.995,0-5.61,1.572-9.78,5.616Zm55.044-2.492,9-23.378c2.223-6.007,2.223-8.743-4.567-9.267v-2.223h16.962v2.223c-5.345.524-6.652,1.693-8.876,6.652l-14.871,38.278h-2.206l-14.75-36.314c-3.133-7.562-4.308-8.357-9.786-8.616v-2.223h22.313v2.223c-4.441.392-5.61,2.874-3.525,7.966Zm113.47,1.185c0,6,1.313,7.827,7.821,7.827v2.229H442.87v-2.229c6.261,0,7.948-1.428,7.948-5.737V160.707c0-7.436-5.351-10.575-10.31-10.575-4.562,0-8.593,2.862-13.172,9v22.6c0,7.044.916,8.875,7.839,8.875v2.229h-24.4V190.61c6.134,0,7.7-.518,7.7-8.875V155.748c0-5.616-1.44-6.791-7.7-6.791v-2.223l14.353-1.446h2.212v9.267c5.483-6.261,10.834-9.267,16.691-9.267,7.706,0,15.66,5.495,15.66,16.593Zm51.34-21.167H508.8c-1.97-8.345-7.827-13.713-15.528-13.713-9.129,0-15.516,7.845-15.516,19.191,0,12.677,7.948,23.263,17.348,23.263,5.61,0,12.394-3,17.215-9.67v3.4a24.17,24.17,0,0,1-20.343,10.183c-13.708,0-23.228-9.532-23.228-23.39,0-14.226,10.707-25.6,23.874-25.6,6.917,0,10.7,2.615,13.045,2.615,1.164,0,2.35-.916,3.133-2.615h2.223Zm33.131,20.506,8.1-24.421c1.814-5.489,1.429-8.49-3.651-8.749v-2.217h16.3v2.217c-4.965,0-7.954,3.139-10.569,10.839l-18.4,54.468c-3.652,10.7-9.653,16.841-15.263,16.841-1.952,0-3.381-.519-5.737-1.947l3.007-7.971a9.869,9.869,0,0,0,4.429,1.042c5.6,0,8.876-3.266,11.738-11.364l6.013-16.726-16.57-38.261c-2.35-5.362-4.049-6.791-9.394-6.923v-2.217h22.174v2.217c-3.525.524-4.959,3.139-3.26,7.05ZM295.267,102.206c-2.431,5.241-9.06,7.856-12.711,7.856-5.057,0-9.417-5.057-9.417-11.341,0-12.567,10.454-12.383,22.128-17.446Zm11.83-.893.023-27.364c0-16.76-12.02-22.687-22.307-22.687-11.145,0-20.21,7.505-22.819,19.018l3.139.881c2.615-8.9,9.4-13.27,16.374-13.27,8.7,0,13.76,6.289,13.76,15.009v4.533c-10.1,5.932-34.148,5.23-34.148,22.86,0,9.071,8.012,16.392,17.6,16.392,6.456,0,11.191-2.557,17.284-9.175l.046-.023v7.43h21.639V111.91c-8.818,0-10.586-2.476-10.586-10.6m83.029,82.065c-1.809,3.882-6.722,5.823-9.429,5.823-3.749,0-6.98-3.755-6.98-8.409,0-9.313,7.752-9.181,16.409-12.93Zm8.766-.668.017-20.285c0-12.418-8.91-16.818-16.536-16.818-8.271,0-14.981,5.57-16.922,14.1l2.333.645c1.935-6.6,6.963-9.826,12.13-9.826,6.462,0,10.212,4.665,10.212,11.122v3.363c-7.488,4.4-25.319,3.876-25.319,16.939,0,6.727,5.938,12.153,13.046,12.153,4.786,0,8.294-1.889,12.815-6.808l.029-.012v5.506h16.04v-2.235c-6.532,0-7.845-1.83-7.845-7.849" fill="#211e1e"/>
  </g>
</svg>
